<!-- sample rectangle -->
<svg width="45" height="35" xmlns="http://www.w3.org/2000/svg">
  <path d="M0.799138 25.99C0.540364 25.734 0.516841 25.3385 0.775615 25.0826L4.86896 21.0345L13.879 12.1238C14.1378 11.8679 14.5377 11.8679 14.773 12.1238L17.4078 14.7296C17.6665 14.9855 17.6665 15.381 17.4078 15.6136L9.00935 23.9194C8.72705 24.1985 8.7741 24.6871 9.12698 24.8965C16.0668 29.1541 23.1243 26.0598 27.7352 21.3602C27.9705 21.1043 27.9705 20.7087 27.7352 20.4761L17.0314 9.86711C16.7726 9.61119 16.7726 9.21568 17.0314 8.98303L19.6897 6.35405C19.9485 6.09813 20.3484 6.09813 20.5836 6.35405L34.8398 20.4528C35.0985 20.7087 35.0985 21.1043 34.8398 21.3369L30.6288 25.5014C22.4186 33.6675 9.19755 33.8071 0.799138 25.99Z" fill="#17244B"></path>
  <path d="M38.0391 18.2193L37.9921 18.2659C37.7333 18.5218 37.3334 18.5218 37.0746 18.2659L22.8185 4.16709C22.5597 3.91117 22.5597 3.51566 22.8185 3.28301L25.4533 0.67729C25.712 0.421372 26.112 0.421372 26.3472 0.67729L37.8509 12.054C39.6388 13.7989 39.8035 16.4744 38.0391 18.2193Z" fill="#EF9B23"></path>
</svg>